<?xml version="1.0" encoding="utf-8"?>
<!-- Generator: Adobe Illustrator 25.2.3, SVG Export Plug-In . SVG Version: 6.00 Build 0)  -->
<svg version="1.1" id="Layer_1" xmlns="http://www.w3.org/2000/svg" xmlns:xlink="http://www.w3.org/1999/xlink" x="0px" y="0px"
	 viewBox="0 0 173.6 124" style="enable-background:new 0 0 173.6 124;" xml:space="preserve">
<style type="text/css">
	.st0{fill:#1A3D6D;}
	.st1{fill:#93C83F;}
</style>
<g>
	<path class="st0" d="M35.1,56.9l17.5-19.8h-17v-8.2h30.4v7L48.5,55.7h17.6v8.2h-31V56.9z"/>
	<path class="st0" d="M68.4,46.5L68.4,46.5c0-10.1,8.1-18.3,18.9-18.3s18.8,8,18.8,18.1v0.1c0,10-8.1,18.2-18.9,18.2
		S68.4,56.6,68.4,46.5z M96.2,46.5L96.2,46.5c0-5.1-3.7-9.5-9-9.5c-5.3,0-8.8,4.3-8.8,9.4v0.1c0,5,3.7,9.5,8.9,9.5
		C92.7,55.9,96.2,51.6,96.2,46.5z"/>
	<path class="st0" d="M118.2,37.4h-10.5v-8.5h30.7v8.5h-10.5v26.5h-9.7C118.2,63.9,118.2,37.4,118.2,37.4z"/>
</g>
<g>
	<path class="st1" d="M34.6,98.3l17.8-22.7H35.2v-2.8h21.5v2.1L38.8,97.6h17.9v2.8H34.6V98.3z"/>
	<path class="st1" d="M63.1,72.8H83v2.8H66.2v9.4h15v2.8h-15v9.6h17v2.8H63.1C63.1,100.4,63.1,72.8,63.1,72.8z"/>
	<path class="st1" d="M89.5,72.8h11.8c3.4,0,6.1,1,7.8,2.8c1.3,1.3,2.1,3.3,2.1,5.4v0.1c0,4.6-3.2,7.2-7.5,8l8.5,11.3h-3.8l-8-10.7
		h-7.9v10.7h-3.1V72.8z M101.1,86.9c4.1,0,7.1-2.1,7.1-5.7v-0.1c0-3.4-2.6-5.4-7-5.4h-8.5v11.2H101.1z"/>
	
		<rect x="115.6" y="84.4" transform="matrix(0.7071 -0.7071 0.7071 0.7071 -23.4844 115.1938)" class="st1" width="23.4" height="3.1"/>
	<path class="st1" d="M115.7,86.5L115.7,86.5c0-7.8,4.6-14.3,11.7-14.3c7.1,0,11.6,6.4,11.6,14.2v0.1c0,7.7-4.6,14.2-11.6,14.2
		C120.2,100.6,115.7,94.2,115.7,86.5z M135.7,86.5L135.7,86.5c0-6.1-3.3-11.5-8.4-11.5c-5.2,0-8.4,5.3-8.4,11.3v0.1
		c0,6,3.3,11.4,8.5,11.4C132.5,97.8,135.7,92.5,135.7,86.5z"/>
</g>
</svg>
