<svg width="39" height="32" viewBox="0 0 39 32" fill="none" xmlns="http://www.w3.org/2000/svg">
<path d="M37.6667 27.6667C37.6667 28.5507 37.3155 29.3986 36.6904 30.0237C36.0652 30.6488 35.2174 31 34.3333 31H4.33333C3.44928 31 2.60143 30.6488 1.97631 30.0237C1.35119 29.3986 1 28.5507 1 27.6667V9.33333C1 8.44928 1.35119 7.60143 1.97631 6.97631C2.60143 6.35119 3.44928 6 4.33333 6H11L14.3333 1H24.3333L27.6667 6H34.3333C35.2174 6 36.0652 6.35119 36.6904 6.97631C37.3155 7.60143 37.6667 8.44928 37.6667 9.33333V27.6667Z" stroke="#555759" stroke-width="2" stroke-linecap="round" stroke-linejoin="round"/>
<path d="M19.3333 24.3333C23.0152 24.3333 26 21.3486 26 17.6667C26 13.9848 23.0152 11 19.3333 11C15.6514 11 12.6666 13.9848 12.6666 17.6667C12.6666 21.3486 15.6514 24.3333 19.3333 24.3333Z" stroke="#555759" stroke-width="2" stroke-linecap="round" stroke-linejoin="round"/>
</svg>

