<?xml version="1.0" encoding="utf-8"?>
<!-- Generator: Adobe Illustrator 25.2.3, SVG Export Plug-In . SVG Version: 6.00 Build 0)  -->
<svg version="1.1" id="Layer_1" xmlns="http://www.w3.org/2000/svg" xmlns:xlink="http://www.w3.org/1999/xlink" x="0px" y="0px"
	 viewBox="0 0 341.6 124" style="enable-background:new 0 0 341.6 124;" xml:space="preserve">
<style type="text/css">
	.st0{fill:#1A3D6D;}
	.st1{fill:#93C83F;}
</style>
<g>
	<path class="st0" d="M60.3,74.4l17.5-19.8h-17v-8.2h30.4v7L73.7,73.2h17.5v8.2H60.3V74.4z"/>
	<path class="st0" d="M93.6,64L93.6,64c0-10.1,8.1-18.3,18.9-18.3s18.8,8,18.8,18.1v0.1c0,10.1-8.1,18.2-18.9,18.2
		S93.6,74.1,93.6,64z M121.4,64L121.4,64c0-5.1-3.7-9.5-9-9.5c-5.3,0-8.8,4.3-8.8,9.4v0.1c0,5.1,3.7,9.4,8.9,9.4
		C117.9,73.4,121.4,69.1,121.4,64z"/>
	<path class="st0" d="M143.4,54.9h-10.5v-8.5h30.7v8.5h-10.5v26.5h-9.7V54.9z"/>
</g>
<g>
	<path class="st1" d="M167.8,78.8l22.4-28.4h-21.6v-3.5h26.9v2.6l-22.4,28.4h22.4v3.5h-27.7L167.8,78.8L167.8,78.8z"/>
	<path class="st1" d="M203.6,46.8h25v3.5h-21.1v11.8h18.9v3.5h-18.9v12.1h21.3v3.6h-25.2V46.8z"/>
	<path class="st1" d="M236.6,46.8h14.9c4.3,0,7.7,1.3,9.8,3.5c1.7,1.7,2.7,4.1,2.7,6.8v0.1c0,5.7-4,9.1-9.4,10.1l10.6,14.1h-4.8
		l-10-13.4h-9.9v13.4h-3.9L236.6,46.8L236.6,46.8z M251.2,64.5c5.2,0,8.9-2.7,8.9-7.1v-0.1c0-4.3-3.3-6.8-8.8-6.8h-10.7v14H251.2z"
		/>
	
		<rect x="269.5" y="61.4" transform="matrix(0.7071 -0.7071 0.7071 0.7071 38.4631 219.4496)" class="st1" width="29.3" height="3.8"/>
	<path class="st1" d="M269.5,64L269.5,64c0-9.8,5.8-18,14.7-18c8.9,0,14.5,8.1,14.5,17.8v0.1c0,9.7-5.7,17.9-14.6,17.9
		C275.2,81.7,269.5,73.6,269.5,64z M294.7,64L294.7,64c0-7.6-4.1-14.4-10.6-14.4c-6.5,0-10.5,6.6-10.5,14.2v0.1
		c0,7.6,4.1,14.3,10.6,14.3S294.7,71.5,294.7,64z"/>
</g>
</svg>
